inDegrees=no
num_controls=7
num_derivatives=13
num_iterations=182
num_multipliers=7
num_parameters=0
num_slacks=7
num_states=26
objective=0.726401
objective_accelerations=0.010568
objective_balance=0.002682
objective_effort=0.029723
objective_height=0.471364
objective_ligament=0.212065
solver_duration=2233.435849
status=Solve_Succeeded
success=true
DataType=double
version=3
OpenSimVersion=4.5
endheader
time	/jointset/ground_pelvis/pelvis_tilt/value	/jointset/ground_pelvis/pelvis_tx/value	/jointset/ground_pelvis/pelvis_ty/value	/jointset/hip_l/hip_flexion_l/value	/jointset/hip_l/hip_adduction_l/value	/jointset/hip_l/hip_rotation_l/value	/jointset/back/lumbar_extension/value	/jointset/patellofemoral_l/patellar_flexion_l/value	/jointset/knee_l/knee_flexion_l/value	/jointset/knee_l/knee_adduction_l/value	/jointset/knee_l/knee_rotation_l/value	/jointset/ankle_l/ankle_angle_l/value	/jointset/subtalar_l/subtalar_angle_l/value	/jointset/ground_pelvis/pelvis_tilt/speed	/jointset/ground_pelvis/pelvis_tx/speed	/jointset/ground_pelvis/pelvis_ty/speed	/jointset/hip_l/hip_flexion_l/speed	/jointset/hip_l/hip_adduction_l/speed	/jointset/hip_l/hip_rotation_l/speed	/jointset/back/lumbar_extension/speed	/jointset/patellofemoral_l/patellar_flexion_l/speed	/jointset/knee_l/knee_flexion_l/speed	/jointset/knee_l/knee_adduction_l/speed	/jointset/knee_l/knee_rotation_l/speed	/jointset/ankle_l/ankle_angle_l/speed	/jointset/subtalar_l/subtalar_angle_l/speed	/forceset/tau_hip_flexion_l	/forceset/tau_hip_adduction_l	/forceset/tau_hip_rotation_l	/forceset/tau_knee_flexion_l	/forceset/tau_ankle_angle_l	/forceset/tau_subtalar_angle_l	/forceset/tau_lumbar_extension	lambda_cid13_p0	lambda_cid13_p1	lambda_cid13_p2	lambda_cid13_p3	lambda_cid13_p4	lambda_cid13_p5	lambda_cid14_p0	/jointset/ground_pelvis/pelvis_tilt/accel	/jointset/ground_pelvis/pelvis_tx/accel	/jointset/ground_pelvis/pelvis_ty/accel	/jointset/hip_l/hip_flexion_l/accel	/jointset/hip_l/hip_adduction_l/accel	/jointset/hip_l/hip_rotation_l/accel	/jointset/back/lumbar_extension/accel	/jointset/patellofemoral_l/patellar_flexion_l/accel	/jointset/knee_l/knee_flexion_l/accel	/jointset/knee_l/knee_adduction_l/accel	/jointset/knee_l/knee_rotation_l/accel	/jointset/ankle_l/ankle_angle_l/accel	/jointset/subtalar_l/subtalar_angle_l/accel	gamma_cid13_p0	gamma_cid13_p1	gamma_cid13_p2	gamma_cid13_p3	gamma_cid13_p4	gamma_cid13_p5	gamma_cid14_p0
1.5	0.1008448552941854	-0.005901010069962715	0.9222604097722403	0.2900504883447187	-0.2397099087619037	-0.3093449027234976	-0.7706619009324833	0.3154169069842909	0.3154169069841342	-0.03483140173334753	-0.1744538132318472	-0.01682523063651609	0.05272931632603944	0.2112106926844964	0.2099664369456694	0.1151417810232764	-0.9035778948539051	0.1340431607336297	-0.2404569859953006	0.8362325291752559	-0.7043684001318559	-0.7043684001319318	0.05608883746576183	2.646463387759406e-05	0.01149270335324168	0.1469392298102417	-0.1293261744981717	0.002840277023474809	-0.007215518345185057	-0.1323763369592545	0.1213192182525216	0.03363214400128624	0.2415856425199435	-5.60042029697706	-15.15978094448994	3.714697702883491	-3.124976950093874	-695.6931674239117	-87.15078910832791	-23.51839859591884	-0.3440489705837225	0.3670537620070965	-0.1145275490494572	-0.2201305220440849	0.06339149748889064	-0.08786056308415566	1.496312697078216	-0.435328883688396	-0.4353288836884034	-0.1980771508313149	-0.004665945820732497	0.1441528925841273	0.1302522185576217	2.60880107543308e-08	-1.761653225212787e-08	-7.52458627287492e-08	-6.422137051143435e-09	1.439717963873094e-08	-5.819008779670821e-09	1.431415546320015e-08
1.51	0.1029396908291685	-0.003783164618006671	0.9234059103040648	0.2810044232430871	-0.2383667204702956	-0.3117533746870917	-0.7622257921562802	0.3083523375647615	0.308352337564761	-0.03428109003940482	-0.1744536696501149	-0.01670305705851315	0.05420480934577386	0.2077445438033753	0.2135849587248876	0.1139388445433104	-0.9055447637194067	0.1345687333649589	-0.2412063339584906	0.8508938487669424	-0.7084450899202879	-0.7084450899202471	0.05394775563048593	2.725657129982196e-06	0.01295588049474567	0.1481383815066719	-0.1236933224403138	0.001373539935578316	-0.007147860265296154	-0.1329189695716083	0.1220679194962169	0.03260889137510871	0.2362749219975266	-5.312051596804839	-14.77406175996149	3.662556333004485	-3.113838493166525	-694.1329241246798	-87.16022685571573	-23.46214123413825	-0.3496743437257988	0.3565956964955141	-0.1260942751193851	-0.1714062466392896	0.04328086678409819	-0.0637991672814181	1.436734995923906	-0.378782784618288	-0.3787827846009197	-0.2259915349771173	-0.001169851276435921	0.1494827766540817	0.1116078023515249	2.568534966041118e-08	-1.379273492737007e-08	-7.364034063145511e-08	-7.069323529384049e-09	1.988416494230546e-08	-5.99341896608334e-09	1.422644121498936e-08
1.52	0.1049995095759741	-0.001629665086135768	0.9245387979555599	0.2719414012172278	-0.2370190483082096	-0.3141684055811912	-0.7536459315030172	0.3012500124957043	0.3012500124958719	-0.03375296273082962	-0.1744537518536868	-0.0165658351787492	0.05569166611390564	0.2042073350482743	0.2170972529286411	0.1126192049573918	-0.9069692796983605	0.1349399348294733	-0.2417687720954858	0.8649829045870429	-0.7119195300366301	-0.711919530036473	0.05165196039115773	-1.869242660490922e-05	0.01450236370506756	0.1492119794897364	-0.1180604703825063	-9.319715235477015e-05	-0.007080202185324538	-0.1334616021839717	0.1228166207399032	0.03158563874888856	0.2309642014750852	-5.026512745816574	-14.38776864532452	3.610233920786519	-3.116993865511917	-692.6165327731107	-87.1801993674174	-23.39993302694124	-0.3582609453794584	0.345808246913916	-0.1378681702399985	-0.1116599447344556	0.03251726412597737	-0.05047859784520667	1.38185994276116	-0.3148789492705141	-0.3148789492705362	-0.2290198316416324	-0.004201767218190696	0.1608141063473975	0.1051414758844504	2.560953880680335e-08	-1.000622110519966e-08	-7.228064042905043e-08	-8.139210719529789e-09	2.69194674340374e-08	-6.436670257485688e-09	1.420279338577459e-08
1.53	0.107023620762152	0.0005583679307679826	0.9256579165606158	0.2628668455920302	-0.23566845234887	-0.3165881568757605	-0.7449283021735801	0.2941159003270292	0.2941159003271694	-0.03324859831622882	-0.1744540523216405	-0.01641282808864548	0.05718857741154702	0.2006015394640625	0.2204853796262657	0.1111851122923328	-0.907840781096767	0.135151513757724	-0.2421494338516333	0.8784247550513836	-0.7147976591767737	-0.7147976591768035	0.04919446990999857	-4.108899308862197e-05	0.01610721135618221	0.1501450108812094	-0.1121227487140894	-0.001711995689443717	-0.007003169398920132	-0.1342887391505817	0.1237869707561685	0.03048486576618108	0.2253453622709149	-4.673331045391993	-13.97535039647616	3.548832681535043	-3.087896301590837	-691.0279530548029	-87.19181947347006	-23.33172448351631	-0.3637399419157826	0.331717162260619	-0.1490823295312179	-0.05973148110343156	0.01131972358462404	-0.02703972354711731	1.307616661415101	-0.2584960723379813	-0.2584960723660852	-0.2580856516814158	-0.001224868629700904	0.1615462346159978	0.08360217545095627	2.588100633352679e-08	-6.259321004528369e-09	-7.118212598996572e-08	-9.658217416074723e-09	3.55998569381866e-08	-7.165565222939728e-09	1.424721612674308e-08
